{"title":"Baracuda - Ass Up (CDM) (2005) (lossless-DENnv)","uid":10120622,"size":156344554,"categoryP":"audio","categoryS":"flac","magnet":"?xt=urn:btih:725154c3d76471b0ac87a0e33bf938e7f272ad4c&amp;dn=Baracuda+-+Ass+Up+%28CDM%29+%282005%29+%28lossless-DENnv%29&amp;tr=udp%3A%2F%2Ftracker.openbittorrent.com%3A80&amp;tr=udp%3A%2F%2Fopen.demonii.com%3A1337&amp;tr=udp%3A%2F%2Ftracker.coppersurfer.tk%3A6969&amp;tr=udp%3A%2F%2Fexodus.desync.com%3A6969","seeders":1,"leechers":0,"uploader":"kxmp","files":6,"time":1399668294,"description":"REM GENRE Euro-House\nREM DATE 2005\nREM DISCID 3604F604\nREM COMMENT &quot;ExactAudioCopy v0.99pb5&quot;\nPERFORMER &quot;Baracuda&quot;\nTITLE &quot;Ass Up (CDM)&quot;\nFILE &quot;Baracuda - Ass Up (CDM).flac&quot; WAVE\n  TRACK 01 AUDIO\n    TITLE &quot;Ass Up (Radio Edit)&quot;\n    PERFORMER &quot;Baracuda&quot;\n    FLAGS DCP\n    INDEX 01 00:00:00\n  TRACK 02 AUDIO\n    TITLE &quot;Ass Up (Extended Mix)&quot;\n    PERFORMER &quot;Baracuda&quot;\n    FLAGS DCP\n    INDEX 00 03:01:40\n    INDEX 01 03:03:31\n  TRACK 03 AUDIO\n    TITLE &quot;Ass Up (Groove Coverage Remix)&quot;\n    PERFORMER &quot;Baracuda&quot;\n    FLAGS DCP\n    INDEX 00 08:04:15\n    INDEX 01 08:06:06\n  TRACK 04 AUDIO\n    TITLE &quot;Ass Up (IC3M4N Remix)&quot;\n    PERFORMER &quot;Baracuda&quot;\n    FLAGS DCP\n    INDEX 00 14:20:09\n    INDEX 01 14:22:00\n","torrent":{"xt":"urn:btih:725154c3d76471b0ac87a0e33bf938e7f272ad4c","amp;dn":"Baracuda+-+Ass+Up+%28CDM%29+%282005%29+%28lossless-DENnv%29","amp;tr":["udp%3A%2F%2Ftracker.openbittorrent.com%3A80","udp%3A%2F%2Fopen.demonii.com%3A1337","udp%3A%2F%2Ftracker.coppersurfer.tk%3A6969","udp%3A%2F%2Fexodus.desync.com%3A6969"],"infoHash":"725154c3d76471b0ac87a0e33bf938e7f272ad4c","infoHashBuffer":{"type":"Buffer","data":[114,81,84,195,215,100,113,176,172,135,160,227,59,249,56,231,242,114,173,76]},"announce":[],"urlList":[]}}